# xmcd
#
# Track frame offsets:
#	150
#	12462
#	28142
#	44535
#	54376
#	64512
#	84244
#	93718
#	108032
#	128315
#	143214
#	157105
#	170199
#	184587
#	201530
#	211645
#	233169
#	243234
#	257680
#	275553
#	296606
#	310733
#
# Disc length: 4325 seconds
#
# Revision: 0
# Processed by: cddbd v1.5.2PL0 Copyright (c) Steve Scherf et al.
# Submitted via: audiograbber 1.83.01
#
DISCID=3710e316
DTITLE=Stardust - Stardust 026
DYEAR=2000
DGENRE=Country
TTITLE0=Life´s Little Ups And Downs - Rooster Quantrell
TTITLE1=Raisin´the Dickens - Pap and The Sidemen
TTITLE2=The Bottle - Kim Anthony
TTITLE3=Looks Like Your Memory´s Here To Stay - Frank Mabry
TTITLE4=If I Only Had Her - Mark Huhta
TTITLE5=Dannys Song - Michael Apidgian
TTITLE6=A Good Old Country Song - Dick Shuey and Cowboy Rythm Band
TTITLE7=I´ll Fly Away - Clint Miller
TTITLE8=In The Garden - Dick Shuey and Cowboy Rythm Band
TTITLE9=Bad Luck - Erin Hay
TTITLE10=Between Rock and A Heartache - J. L. Caldwell
TTITLE11=We´re All Here - Change Martin
TTITLE12=The Girl In Oklahoma - Tracy K. Houston
TTITLE13=Big Black Hole - Brant Miller
TTITLE14=Married Bachelor - Jerri Arnold
TTITLE15=Most Evry Night - B. J. Young
TTITLE16=Treat My Heart - Danny Wear
TTITLE17=Fifty Miles From Macon - Danny Young
TTITLE18=Wake Up Sleeping Beauty - Elliot Pacetti
TTITLE19=Get Into Country - Mark Montanari
TTITLE20=Country True and Thru - Dodie Frost
TTITLE21=To See My Grandma - The Whites
EXTD=
EXTT0=
EXTT1=
EXTT2=
EXTT3=
EXTT4=
EXTT5=
EXTT6=
EXTT7=
EXTT8=
EXTT9=
EXTT10=
EXTT11=
EXTT12=
EXTT13=
EXTT14=
EXTT15=
EXTT16=
EXTT17=
EXTT18=
EXTT19=
EXTT20=
EXTT21=
PLAYORDER=
